<svg height="512pt" viewBox="-1 0 512 512" width="512pt" xmlns="http://www.w3.org/2000/svg"><path d="m380.015625 7.574219h-298.539063c-40.816406 0-73.90625 33.085937-73.90625 73.902343v198.582032c0 40.816406 33.089844 73.90625 73.90625 73.90625h23.082032v101.671875l102.929687-101.671875h172.527344c40.816406 0 73.902344-33.089844 73.902344-73.90625v-198.582032c0-40.816406-33.085938-73.902343-73.902344-73.902343zm0 0" fill="#ffc73b"/><path d="m356.839844 322.773438c-29.25 45.128906-30.304688 100.402343-7.597656 145.136718 50.105468 2.460938 100.128906-21.074218 129.378906-66.203125 29.25-45.125 30.304687-100.402343 7.597656-145.132812-50.105469-2.464844-100.128906 21.074219-129.378906 66.199219zm0 0" fill="#adc165"/><path d="m55.019531 73.0625c0 3.382812 2.128907 5.933594 4.953125 5.933594h13.824219v58.90625c0 2.867187 2.574219 4.949218 6.125 4.949218 3.546875 0 6.125-2.082031 6.125-4.949218v-58.90625h13.726563c2.867187 0 4.953124-2.496094 4.953124-5.933594 0-3.320312-2.085937-5.734375-4.953124-5.734375h-39.800782c-3.21875 0-4.953125 2.957031-4.953125 5.734375zm0 0"/><path d="m122.945312 67.328125c-3.605468 0-6.125 1.996094-6.125 4.855469v65.71875c0 2.871094 2.574219 4.953125 6.125 4.953125 3.550782 0 6.125-2.082031 6.125-4.953125v-28.6875h22.464844v28.6875c0 2.871094 2.578125 4.953125 6.125 4.953125 3.550782 0 6.128906-2.082031 6.128906-4.953125v-65.71875c0-2.859375-2.519531-4.855469-6.128906-4.855469-3.605468 0-6.125 1.996094-6.125 4.855469v26.144531h-22.464844v-26.144531c0-2.859375-2.515624-4.855469-6.125-4.855469zm0 0"/><path d="m210.433594 70.988281c-.800782-2.539062-3.617188-4.246093-7.007813-4.246093-3.539062 0-6.226562 1.636718-7.015625 4.261718l-19.933594 64.988282-.046874.128906c-.101563.28125-.253907.707031-.253907 1.289062 0 3.550782 4.070313 5.441406 7.007813 5.441406 2.472656 0 4.328125-1.226562 4.964844-3.304687l3.878906-13.121094h22.699218l3.882813 13.144531c.625 2.023438 2.488281 3.28125 4.863281 3.28125 3.359375 0 7.105469-2.273437 7.105469-5.539062 0-.308594-.058594-.5625-.097656-.683594v-.300781zm1.144531 44.652344h-16.488281l8.316406-27.679687zm0 0"/><path d="m249.1875 142.855469c3.550781 0 6.125-2.082031 6.125-4.953125v-41.671875l21.613281 41.816406.023438.039063c1.675781 3.074218 4.148437 4.769531 6.957031 4.769531 3.546875 0 6.125-2.082031 6.125-4.953125v-65.71875c0-2.859375-2.519531-4.855469-6.125-4.855469-3.609375 0-6.128906 1.996094-6.128906 4.855469v41.589844l-20.535156-40.164063c-1.5625-3.039063-3.601563-6.28125-8.054688-6.28125-3.722656 0-6.125 1.90625-6.125 4.855469v65.71875c0 2.867187 2.574219 4.953125 6.125 4.953125zm0 0"/><path d="m313.824219 67.328125c-3.605469 0-6.128907 1.996094-6.128907 4.855469v65.71875c0 2.871094 2.578126 4.953125 6.128907 4.953125 3.546875 0 6.125-2.082031 6.125-4.953125v-20.90625l5.074219-6.375 19.878906 29.867187c1.101562 1.652344 2.777344 2.5625 4.710937 2.5625 3.566407 0 6.8125-2.921875 6.8125-6.125 0-.816406-.253906-1.636719-.824219-2.582031l-22.464843-33.980469 19.007812-23.753906c.734375-.882813 1.152344-1.996094 1.152344-3.054687 0-3.351563-3.691406-6.222657-6.710937-6.222657-1.589844 0-3.144532.757813-4.046876 1.960938l-22.589843 29.332031v-26.441406c0-2.859375-2.519531-4.855469-6.125-4.855469zm0 0"/><path d="m116.101562 192.570312 20.320313 37.910157.054687.089843v24.675782c0 2.871094 2.574219 4.953125 6.125 4.953125 3.546876 0 6.125-2.082031 6.125-4.953125v-24.742188c0-.035156 0-.070312 0-.105468l20.199219-37.667969.078125-.15625c.457032-1.066407.554688-1.925781.554688-2.457031 0-3.257813-3.574219-5.441407-6.910156-5.441407-2.996094 0-4.289063 2.421875-4.730469 3.25l-15.324219 30.03125-15.421875-30.0625c-.800781-1.5-2.058594-3.21875-4.71875-3.21875-2.824219 0-6.90625 1.9375-6.90625 5.441407 0 .527343.097656 1.382812.554687 2.453124zm0 0"/><path d="m203.132812 184.671875c-14.863281 0-23.046874 8.289063-23.046874 23.339844v29.433593c0 15.050782 8.183593 23.339844 23.046874 23.339844 14.707032 0 23.140626-8.507812 23.140626-23.339844v-29.433593c0-14.832031-8.433594-23.339844-23.140626-23.339844zm10.886719 23.339844v29.433593c0 7.988282-3.558593 11.871094-10.886719 11.871094-7.261718 0-10.792968-3.882812-10.792968-11.871094v-29.433593c0-7.984375 3.53125-11.867188 10.792968-11.867188 7.328126 0 10.886719 3.878907 10.886719 11.867188zm0 0"/><path d="m242.960938 237.445312c0 15.050782 8.289062 23.339844 23.339843 23.339844 14.894531 0 23.4375-8.507812 23.4375-23.339844v-47.917968c0-2.8125-2.578125-4.855469-6.128906-4.855469-3.664063 0-6.125 1.953125-6.125 4.855469v47.917968c0 7.988282-3.65625 11.871094-11.183594 11.871094-7.460937 0-11.085937-3.882812-11.085937-11.871094v-47.917968c0-2.859375-2.519532-4.855469-6.125-4.855469-3.605469 0-6.125 1.996094-6.125 4.855469v47.917968zm0 0"/><path d="m322.882812 353.964844c0-4.179688-3.386718-7.570313-7.570312-7.570313h-107.824219c-1.992187 0-3.902343.785157-5.320312 2.183594l-90.035157 88.9375v-83.550781c0-4.179688-3.390624-7.570313-7.574218-7.570313h-23.082032c-36.578124 0-66.335937-29.757812-66.335937-66.335937v-198.582032c0-36.574218 29.757813-66.332031 66.335937-66.332031h1.132813c4.183594 0 7.570313-3.390625 7.570313-7.570312 0-4.183594-3.386719-7.57031275-7.570313-7.57031275h-1.132813c-44.925781 0-81.476562 36.54687475-81.476562 81.47265575v198.582032c0 44.925781 36.550781 81.476562 81.476562 81.476562h15.511719v94.101563c0 3.054687 1.835938 5.808593 4.652344 6.984375.945313.394531 1.933594.585937 2.917969.585937 1.957031 0 3.878906-.757812 5.320312-2.183593l100.71875-99.488282h104.714844c4.183594 0 7.570312-3.390625 7.570312-7.570312zm0 0"/><path d="m492.972656 253.144531c-1.234375-2.421875-3.667968-4-6.378906-4.132812-8.398438-.414063-16.796875-.125-25.105469.832031v-168.371094c0-44.921875-36.546875-81.472656-81.472656-81.472656h-264.921875c-4.183594 0-7.570312 3.390625-7.570312 7.570312 0 4.183594 3.386718 7.570313 7.570312 7.570313h264.917969c36.578125 0 66.332031 29.757813 66.332031 66.332031v170.898438c-12.449219 2.710937-24.566406 6.957031-36.023438 12.6875-24.292968 12.148437-44.984374 30.683594-59.835937 53.597656s-23.320313 49.371094-24.492187 76.507812c-1.074219 24.863282 3.960937 49.734376 14.570312 72.214844l-21.34375 32.929688c-2.273438 3.511718-1.273438 8.199218 2.234375 10.472656 1.273437.824219 2.699219 1.21875 4.113281 1.21875 2.476563 0 4.910156-1.21875 6.359375-3.453125l21.34375-32.929687c.996094.019531 1.996094.035156 2.996094.035156 19.992187 0 40.101563-3.949219 58.585937-11.546875 3.867188-1.589844 5.710938-6.011719 4.121094-9.878907-1.589844-3.867187-6.015625-5.714843-9.878906-4.125-14.539062 5.976563-30.183594 9.429688-45.914062 10.222657l21.765624-33.578125 38.128907-5.851563c4.132812-.636719 6.96875-4.5 6.335937-8.632812-.636718-4.132813-4.503906-6.96875-8.632812-6.335938l-24.808594 3.808594 23.3125-35.960937 27.433594-4.210938c4.132812-.632812 6.96875-4.5 6.332031-8.632812-.632813-4.132813-4.5-6.964844-8.628906-6.332032l-14.113281 2.164063 29.164062-44.996094c2.273438-3.511719 1.273438-8.199219-2.234375-10.472656-3.507813-2.273438-8.195313-1.273438-10.472656 2.234375l-27.523438 42.464844-1.707031-11.128907c-.636719-4.132812-4.492188-6.96875-8.632812-6.335937-4.132813.632812-6.96875 4.5-6.335938 8.632812l4.289062 27.945313-21.949218 33.859375-3.347656-21.824219c-.636719-4.132813-4.5-6.964844-8.632813-6.332031-4.132813.632812-6.96875 4.496094-6.332031 8.628906l5.925781 38.640625-22.054687 34.027344c-15.960938-41.042969-11.449219-87.902344 12.730468-125.210938 25.847656-39.878906 70.867188-63.679687 118.21875-62.902343 20.078125 42.933593 16.703125 93.726562-9.144531 133.601562-10.796875 16.660156-24.679687 30.488281-41.257813 41.109375-3.523437 2.253906-4.550781 6.9375-2.292968 10.457031 2.253906 3.523438 6.9375 4.546875 10.457031 2.292969 18.410156-11.789063 33.820313-27.140625 45.800781-45.625 14.851563-22.914063 23.320313-49.371094 24.492188-76.507813 1.140625-26.332031-4.5625-52.671874-16.492188-76.175781zm0 0"/></svg>